<svg width="233" height="46" viewBox="0 0 233 46" fill="none" xmlns="http://www.w3.org/2000/svg">
<g clip-path="url(#clip0_124_397)">
<path d="M114.992 1.20419H16.1513C7.90292 1.20419 1.21631 7.82475 1.21631 15.9916V28.5874C1.21631 36.7543 7.90292 43.3749 16.1513 43.3749H114.992C123.24 43.3749 129.927 36.7543 129.927 28.5874V15.9916C129.927 7.82475 123.24 1.20419 114.992 1.20419Z" fill="#0E870E"/>
<path d="M115.004 2.40838C122.581 2.40838 128.723 8.48953 128.723 15.9916V28.5995C128.723 36.1016 122.581 42.1827 115.004 42.1827H16.1512C8.57422 42.1827 2.4324 36.1016 2.4324 28.5995V15.9916C2.4324 8.48953 8.57422 2.40838 16.1512 2.40838H115.004ZM115.004 0H16.1512C7.24856 0 0 7.17696 0 15.9916V28.5995C0 37.4141 7.24856 44.5911 16.1512 44.5911H115.004C123.907 44.5911 131.155 37.4141 131.155 28.5995V15.9916C131.155 7.17696 123.907 0 115.004 0Z" fill="white"/>
<path d="M66.5869 2.40838H114.809C122.484 2.40838 128.711 8.57382 128.711 16.1723V28.4068C128.711 36.0052 122.484 42.1707 114.809 42.1707H66.5869V2.40838Z" fill="#D00000"/>
<path d="M141.639 23.0602C136.883 23.0602 133.077 26.8775 133.077 31.5859C133.077 36.2942 136.883 40.1115 141.639 40.1115C146.394 40.1115 150.225 36.3183 150.225 31.5859C150.225 26.8534 146.418 23.0602 141.639 23.0602ZM141.639 37.0649C138.586 37.0649 136.178 34.6084 136.178 31.5859C136.178 28.5634 138.586 26.1068 141.639 26.1068C144.691 26.1068 147.124 28.5634 147.124 31.5859C147.124 34.6084 144.691 37.0649 141.639 37.0649Z" fill="white"/>
<path d="M151.831 39.8827V26.5764H154.908V28.2141C155.808 27.0581 157.206 26.2995 158.921 26.2995C162.229 26.2995 164.248 28.4309 164.248 31.9832V39.8707H161.098V32.2963C161.098 30.2492 160.089 28.9487 158.07 28.9487C156.306 28.9487 154.92 30.2492 154.92 32.5613V39.8586H151.818L151.831 39.8827Z" fill="white"/>
<path d="M169.174 23.0602H166.048V39.8827H169.174V23.0602Z" fill="white"/>
<path d="M174.209 26.5885H171.083V39.8948H174.209V26.5885Z" fill="white"/>
<path d="M170.682 23.3372C170.682 22.1811 171.436 21.4105 172.628 21.4105C173.819 21.4105 174.573 22.1811 174.573 23.3372C174.573 24.4932 173.844 25.2518 172.628 25.2518C171.411 25.2518 170.682 24.4811 170.682 23.3372Z" fill="white"/>
<path d="M175.984 39.8827V26.5764H179.061V28.2141C179.961 27.0581 181.36 26.2995 183.075 26.2995C186.383 26.2995 188.402 28.4309 188.402 31.9832V39.8707H185.252V32.2963C185.252 30.2492 184.242 28.9487 182.223 28.9487C180.46 28.9487 179.073 30.2492 179.073 32.5613V39.8586H175.972L175.984 39.8827Z" fill="white"/>
<path d="M203.665 33.1513C203.665 29.2136 200.747 26.3115 196.757 26.3115C192.768 26.3115 189.776 29.3822 189.776 33.2717C189.776 37.1613 192.647 40.1597 196.867 40.1597C199.847 40.1597 201.963 38.7026 203.13 36.5712L200.576 35.1141C199.932 36.523 198.582 37.4503 196.855 37.4503C194.653 37.4503 193.133 36.1738 192.72 34.3073H203.653V33.1513H203.665ZM192.89 31.7424C193.437 30.1288 194.884 29.0089 196.745 29.0089C198.606 29.0089 200.053 29.9602 200.515 31.7424H192.89Z" fill="white"/>
<path d="M218.126 26.3115C216.314 26.3115 214.708 27.1304 213.76 28.3586V26.5885H210.683V46H213.76V38.3173C214.696 39.4974 216.314 40.1597 218.15 40.1597C221.41 40.1597 224.742 37.5948 224.742 33.2476C224.742 28.9005 221.507 26.3115 218.126 26.3115ZM217.639 37.3419C215.316 37.3419 213.638 35.4995 213.638 33.1995C213.638 30.8995 215.316 29.1052 217.639 29.1052C219.962 29.1052 221.677 30.8995 221.677 33.1995C221.677 35.4995 219.914 37.3419 217.639 37.3419Z" fill="white"/>
<path d="M224.839 29.334V26.5885H227.138V24.5654L230.264 22.4461V26.5885H233V29.334H230.264V34.3194C230.264 36.6435 230.58 37.0047 233 37.0047V39.8948H232.562C228.403 39.8948 227.138 38.5702 227.138 34.3435V29.3461H224.839V29.334Z" fill="white"/>
<path d="M8.46484 31.1403L13.8769 29.3822C14.2783 31.2607 15.7012 32.6696 17.5985 32.6696C19.8242 32.6696 20.7971 30.9838 20.7971 28.9487V8.12827H26.2944V28.455C26.2944 34.2953 23.1444 37.7393 17.6837 37.7393C12.9526 37.7393 9.43781 35.1743 8.46484 31.1403Z" fill="white"/>
<path d="M28.8364 22.7351C28.8364 14.4503 35.5499 7.73089 43.9173 7.73089C52.2848 7.73089 59.0347 14.4503 59.0347 22.7351C59.0347 31.0199 52.3213 37.7393 43.9173 37.7393C35.5134 37.7393 28.8364 31.056 28.8364 22.7351ZM53.574 22.7351C53.574 17.4126 49.2929 13.0895 43.9173 13.0895C38.5417 13.0895 34.2972 17.4126 34.2972 22.7351C34.2972 28.0576 38.5417 32.3806 43.9173 32.3806C49.2929 32.3806 53.574 28.0576 53.574 22.7351Z" fill="white"/>
<path d="M61.1748 22.7351C61.1748 14.4141 67.5234 7.73089 76.2557 7.73089C82.361 7.73089 87.165 10.8136 89.6704 15.2089L84.8178 18.0869C82.9935 14.7633 80.1719 13.0052 76.2922 13.0052C70.795 13.0052 66.6356 17.4126 66.6356 22.7351C66.6356 28.0576 70.7585 32.4649 76.499 32.4649C80.9016 32.4649 83.9786 29.9843 85.0245 26.1429H75.6111V20.9408H90.9353V23.0963C90.9353 30.9838 85.3164 37.7393 76.5111 37.7393C67.7058 37.7393 61.187 30.8152 61.187 22.7351H61.1748Z" fill="white"/>
<path d="M93.1123 22.7351C93.1123 14.4503 99.8257 7.73089 108.193 7.73089C116.561 7.73089 123.311 14.4503 123.311 22.7351C123.311 31.0199 116.597 37.7393 108.193 37.7393C99.7893 37.7393 93.1123 31.056 93.1123 22.7351ZM117.85 22.7351C117.85 17.4126 113.569 13.0895 108.193 13.0895C102.818 13.0895 98.5731 17.4126 98.5731 22.7351C98.5731 28.0576 102.818 32.3806 108.193 32.3806C113.569 32.3806 117.85 28.0576 117.85 22.7351Z" fill="white"/>
<path d="M44.5616 17.2199L45.6318 20.4953H49.1102C49.7426 20.4953 50.0101 21.3021 49.4993 21.6754L46.6899 23.6984L47.7602 26.9738C47.9548 27.5759 47.2615 28.0696 46.7507 27.7084L43.9413 25.6853L41.1319 27.7084C40.6211 28.0817 39.9157 27.5759 40.1224 26.9738L41.1927 23.6984L38.3833 21.6754C37.8724 21.3021 38.1278 20.4953 38.7724 20.4953H42.2508L43.321 17.2199C43.5156 16.6178 44.3791 16.6178 44.5737 17.2199H44.5616Z" fill="white"/>
<path d="M109.312 17.2199L110.382 20.4953H113.861C114.493 20.4953 114.761 21.3021 114.25 21.6754L111.44 23.6984L112.511 26.9738C112.705 27.5759 112.012 28.0696 111.501 27.7084L108.692 25.6853L105.882 27.7084C105.372 28.0817 104.666 27.5759 104.873 26.9738L105.943 23.6984L103.134 21.6754C102.623 21.3021 102.878 20.4953 103.523 20.4953H107.001L108.072 17.2199C108.266 16.6178 109.13 16.6178 109.324 17.2199H109.312Z" fill="white"/>
</g>
<defs>
<clipPath id="clip0_124_397">
<rect width="233" height="46" fill="white"/>
</clipPath>
</defs>
</svg>
