<svg width="23" height="23" viewBox="0 0 23 23" fill="none" xmlns="http://www.w3.org/2000/svg">
<path d="M10.5866 1.04906C10.939 0.258569 12.061 0.258571 12.4134 1.04906L14.9947 6.83998C15.14 7.16601 15.4481 7.38986 15.8031 7.42733L22.1082 8.0928C22.9689 8.18364 23.3157 9.25074 22.6727 9.83013L17.9629 14.0746C17.6977 14.3136 17.5801 14.6757 17.6541 15.0249L18.9696 21.2271C19.1492 22.0738 18.2415 22.7333 17.4918 22.3009L11.9996 19.1332C11.6904 18.9548 11.3096 18.9548 11.0004 19.1332L5.50824 22.3009C4.75853 22.7333 3.8508 22.0738 4.03038 21.2271L5.34587 15.0249C5.41994 14.6757 5.30226 14.3136 5.03709 14.0746L0.327261 9.83013C-0.315652 9.25074 0.0310705 8.18364 0.891754 8.0928L7.19692 7.42733C7.5519 7.38986 7.86 7.16601 8.00533 6.83998L10.5866 1.04906Z" fill="#FEB104"/>
</svg>
